# xmcd
#
# Track frame offsets:
#	150
#	17913
#	36293
#	55962
#	77788
#	94156
#	109187
#	127343
#	147841
#	163039
#	177779
#	197174
#
# Disc length: 2843 seconds
#
# Revision: 2
# Processed by: cddbd v1.5.1PL0 Copyright (c) Steve Scherf et al.
# Submitted via: EasyCDDAExtractor 8.2.1.1
#
DISCID=aa0b190c
DTITLE=окулпиоу деспоима - евоуле коцо
DYEAR=2004
DGENRE=емтевмо
TTITLE0=апоье се хулалаи
TTITLE1=хулалаи оса еивес пеи
TTITLE2=йоита ле
TTITLE3=ам ле гнеяес кицо
TTITLE4=евоуле коцо
TTITLE5=йула цимесаи
TTITLE6=баке лоусийг
TTITLE7=ма ╢соум аккиыс
TTITLE8=епилемеис
TTITLE9=стацома стацома
TTITLE10=дем евы коциа
TTITLE11=амходеслг
EXTD=
EXTT0=
EXTT1=
EXTT2=
EXTT3=
EXTT4=
EXTT5=
EXTT6=
EXTT7=
EXTT8=
EXTT9=
EXTT10=
EXTT11=
PLAYORDER=
